# xmcd
#
# Track frame offsets: 
#        150
#        13085
#        31482
#
# Disc length: 614 seconds
#
# Revision: 0
# Processed by: cddbd v1.5.2PL0 Copyright (c) Steve Scherf et al.
# Submitted via: ExactAudioCopy v0.95a5
#
DISCID=1c026403
DTITLE=Shakin' Dudi  - Ze zlotej plyty
DYEAR=1998
DGENRE=Bluesq
TTITLE0=Au sza la la la (album Versiin)
TTITLE1=Au sza la la la ( Rawa Blues Disco)
TTITLE2=Au sza la la la ( krotki kretynski)
EXTD=
EXTT0=
EXTT1=
EXTT2=
PLAYORDER=
